<?xml version="1.0" encoding="utf-8"?>
<!-- Generator: Adobe Illustrator 28.2.0, SVG Export Plug-In . SVG Version: 6.00 Build 0)  -->
<svg version="1.1" id="Security_Networking" xmlns="http://www.w3.org/2000/svg" xmlns:xlink="http://www.w3.org/1999/xlink"
	 x="0px" y="0px" viewBox="0 0 192 192" style="enable-background:new 0 0 192 192;" xml:space="preserve">
<style type="text/css">
	.st0{fill:#2CCCD3;}
	.st1{fill:#464646;}
</style>
<path class="st0" d="M52,70.1v52H20.2c-5.5,0-10-4.5-10-10v-32c0-5.5,4.5-10,10-10C20.2,70.1,52,70.1,52,70.1z"/>
<path class="st1" d="M52,124.1H20.2c-6.6,0-12-5.4-12-12v-32c0-6.6,5.4-12,12-12H52c1.1,0,2,0.9,2,2v52
	C54,123.2,53.1,124.1,52,124.1z M20.2,72.1c-4.4,0-8,3.6-8,8v32c0,4.4,3.6,8,8,8H50v-48H20.2z"/>
<path class="st1" d="M172.2,124.1H52c-1.1,0-2-0.9-2-2v-52c0-1.1,0.9-2,2-2h120.2c6.6,0,12,5.4,12,12v32
	C184.2,118.8,178.9,124.1,172.2,124.1L172.2,124.1z M54,120.1h118.2c4.4,0,8-3.6,8-8v-32c0-4.4-3.6-8-8-8H54
	C54,72.1,54,120.1,54,120.1z"/>
<circle class="st1" cx="31.1" cy="96.1" r="9.7"/>
<path class="st1" d="M61.8,101.1L61.8,101.1c0.8,0,1.4,0.5,1.8,1.1c0.6,1.2,2,1.9,3.8,1.9c2.4,0,4.1-1.4,4.1-3.3
	c0-2-1.7-3.4-4.5-3.4h-0.4c-0.9,0-1.6-0.7-1.6-1.6l0,0c0-0.9,0.7-1.6,1.6-1.6H67c2.3,0,3.9-1.3,3.9-3.3c0-1.9-1.4-3.2-3.5-3.2
	c-1.6,0-3.1,0.7-3.6,1.9c-0.3,0.7-0.9,1.1-1.6,1.1h-0.3c-1.4,0-2.2-1.4-1.6-2.6c1.2-2.3,3.9-3.7,7.1-3.7c4.5,0,7.4,2.8,7.4,6.2
	c0,2.5-1.6,4.3-4.1,4.8v0.2c3.1,0.4,4.9,2.5,4.9,5.3c0,3.8-3.5,6.5-8.3,6.5c-3.3,0-5.9-1.3-7.3-3.3
	C59.3,102.8,60.2,101.1,61.8,101.1z"/>
<path class="st1" d="M79.1,101.2c0-2.8,2-5.2,4.7-5.6v-0.2c-2.3-0.5-3.9-2.5-3.9-5c0-3.5,3.2-6,7.5-6s7.5,2.6,7.5,6
	c0,2.4-1.6,4.5-3.9,5v0.2c2.6,0.4,4.7,2.8,4.7,5.6c0,3.7-3.5,6.3-8.3,6.3S79.1,104.8,79.1,101.2L79.1,101.2z M91.6,100.9
	c0-2.1-1.8-3.7-4.2-3.7s-4.2,1.5-4.2,3.7c0,2.1,1.6,3.5,4.2,3.5S91.6,103,91.6,100.9z M91,90.8c0-1.9-1.5-3.2-3.6-3.2
	s-3.6,1.3-3.6,3.2c0,1.9,1.5,3.3,3.6,3.3S90.9,92.8,91,90.8z"/>
<path class="st1" d="M99.3,99.2l8.2-12.9c0.6-0.9,1.6-1.5,2.8-1.5l0,0c1.8,0,3.3,1.5,3.3,3.3v11.7h1.2c0.9,0,1.7,0.8,1.7,1.7l0,0
	c0,0.9-0.8,1.7-1.7,1.7h-1.2v2.2c0,1.1-0.9,1.9-1.9,1.9l0,0c-1.1,0-1.9-0.9-1.9-1.9V103h-8.2c-1.4,0-2.5-1.1-2.5-2.5l0,0
	C98.9,100,99.1,99.6,99.3,99.2L99.3,99.2z M109.7,89.3h-0.2l-6.4,10.2v0.2h6.6L109.7,89.3L109.7,89.3z"/>
<path class="st1" d="M119.6,96.6c0-7.7,3.4-12.2,8.8-12.2c3,0,5.4,1.4,6.6,3.5c0.8,1.3-0.2,2.9-1.6,2.9l0,0c-0.7,0-1.4-0.3-1.7-1
	c-0.6-1.2-1.8-1.9-3.3-1.9c-3.1,0-4.8,2.9-4.8,7.6h0.2c1.1-1.9,3.2-3.1,5.6-3.1c3.9,0,7,3.1,6.9,7.3c0,4.4-3.2,7.8-8.1,7.7
	C123.8,107.5,119.6,104.8,119.6,96.6L119.6,96.6z M132.3,99.8c0-2.4-1.7-4.3-4.1-4.3s-4.2,2-4.2,4.3c0,2.3,1.8,4.3,4.2,4.3
	C130.5,104.2,132.3,102.3,132.3,99.8L132.3,99.8z"/>
<path class="st1" d="M139.9,105.1c0-0.6,0.2-1.1,0.6-1.5l7.2-7c2.2-2.2,3.4-3.6,3.4-5.5c0-2.1-1.6-3.4-3.7-3.4c-1.8,0-3,0.9-3.5,2.4
	c-0.3,0.8-1,1.4-1.8,1.4l0,0c-1.3,0-2.3-1.3-1.8-2.5c1-2.8,3.7-4.5,7.2-4.5c4.5,0,7.6,2.8,7.6,6.5c0,2.5-1.2,4.6-5.6,8.8l-3.9,3.9
	v0.2h8.1c0.9,0,1.7,0.8,1.7,1.7l0,0c0,0.9-0.8,1.7-1.7,1.7H142C140.8,107.2,139.9,106.2,139.9,105.1L139.9,105.1L139.9,105.1z"/>
<path class="st1" d="M175.4,95.3c0,7.7-3.4,12.2-8.8,12.2c-3,0-5.4-1.4-6.7-3.5c-0.8-1.3,0.2-2.9,1.7-2.9l0,0c0.7,0,1.4,0.3,1.7,1
	c0.6,1.2,1.8,1.9,3.3,1.9c3.1,0,4.8-2.9,4.9-7.7h-0.1c-1.1,1.9-3.2,3.1-5.6,3.1c-3.9,0-6.9-3.1-7-7.3c0-4.4,3.2-7.7,8.1-7.7
	C171.2,84.5,175.4,87.1,175.4,95.3L175.4,95.3z M162.7,92c0,2.4,1.7,4.3,4.1,4.3s4.2-2,4.2-4.3c0-2.3-1.8-4.3-4.2-4.3
	S162.7,89.6,162.7,92L162.7,92z"/>
</svg>
